<svg width="21" height="21" viewBox="0 0 21 21" fill="none" xmlns="http://www.w3.org/2000/svg">
<path d="M13.5995 1.99225C13.9533 1.99142 14.233 2.26628 14.2338 2.63276L14.2347 3.25745C16.5302 3.43736 18.0466 5.00158 18.049 7.40038L18.0581 14.4219C18.0614 17.0372 16.4183 18.6464 13.7846 18.6506L7.35135 18.6589C4.73411 18.6622 3.07046 17.0147 3.06717 14.3919L3.05811 7.45285C3.05483 5.03823 4.51772 3.47817 6.81325 3.26745L6.81243 2.64276C6.81161 2.27628 7.08312 2.00058 7.44514 2.00058C7.80716 1.99975 8.07868 2.27461 8.0795 2.64109L8.08032 3.22414L12.9676 3.21747L12.9668 2.63443C12.966 2.26795 13.2375 1.99309 13.5995 1.99225ZM13.9352 13.8188H13.927C13.5485 13.828 13.2449 14.1453 13.2531 14.5285C13.2539 14.9116 13.5592 15.2273 13.9376 15.2356C14.3235 15.2348 14.6362 14.9174 14.6354 14.526C14.6354 14.1345 14.3219 13.8188 13.9352 13.8188ZM7.15553 13.8197C6.77705 13.8363 6.48085 14.1537 6.48167 14.5368C6.49895 14.9199 6.81161 15.2198 7.19008 15.2023C7.56115 15.1856 7.85653 14.8683 7.83925 14.4852C7.83102 14.1104 7.52578 13.8188 7.15553 13.8197ZM10.5454 13.8155C10.1669 13.833 9.8715 14.1495 9.8715 14.5326C9.88878 14.9158 10.2014 15.2148 10.5799 15.1981C10.9502 15.1806 11.2464 14.8641 11.2291 14.4802C11.2208 14.1062 10.9156 13.8147 10.5454 13.8155ZM7.15141 10.8212C6.77294 10.8378 6.47756 11.1552 6.47838 11.5383C6.49484 11.9214 6.80832 12.2213 7.18679 12.2038C7.55704 12.1871 7.85242 11.8698 7.83514 11.4867C7.82691 11.1119 7.52248 10.8203 7.15141 10.8212ZM10.5421 10.792C10.1636 10.8087 9.86739 11.126 9.86821 11.5092C9.88467 11.8923 10.1981 12.1913 10.5766 12.1747C10.9469 12.1572 11.2422 11.8407 11.2258 11.4575C11.2167 11.0827 10.9123 10.7912 10.5421 10.792ZM13.9319 10.7962C13.5534 10.8045 13.2572 11.1127 13.258 11.4958V11.505C13.2663 11.8881 13.5789 12.1788 13.9582 12.1705C14.3285 12.1613 14.6238 11.844 14.6156 11.4608C14.5983 11.0944 14.3013 10.7953 13.9319 10.7962ZM12.9692 4.50016L8.08197 4.50683L8.08279 5.18066C8.08279 5.53964 7.8121 5.82283 7.45008 5.82283C7.08806 5.82367 6.81572 5.54131 6.81572 5.18232L6.8149 4.54098C5.21049 4.70173 4.32272 5.64459 4.32518 7.45119L4.32601 7.71022L16.7828 7.69356V7.40204C16.7474 5.61127 15.8489 4.67174 14.2363 4.53181L14.2371 5.17316C14.2371 5.53131 13.9582 5.81534 13.6044 5.81534C13.2424 5.81617 12.9701 5.53298 12.9701 5.17483L12.9692 4.50016Z" fill="#D2001B"/>
</svg>
