<svg width="18" height="17" viewBox="0 0 18 17" fill="none" xmlns="http://www.w3.org/2000/svg">
<path fill-rule="evenodd" clip-rule="evenodd" d="M3.38299 3.58466C3.38441 3.58466 3.34899 3.6215 3.30437 3.66541C3.13295 3.83187 2.77807 4.17825 2.7745 4.90287C2.76887 5.9165 3.43541 7.79854 6.64487 11.0073C9.83945 14.2005 11.7187 14.8748 12.7344 14.8748H12.7493C13.4739 14.8712 13.8196 14.5157 13.9867 14.345C14.0377 14.2925 14.0788 14.2543 14.1079 14.2302C14.8134 13.5205 15.1746 12.992 15.1711 12.6535C15.1661 12.3078 14.7362 11.8991 14.1419 11.3338C13.9527 11.1539 13.7473 10.9584 13.5306 10.7417C12.9689 10.1814 12.6905 10.277 12.0785 10.4923C11.232 10.7891 10.0704 11.1929 8.26553 9.38733C6.45787 7.58108 6.86232 6.42083 7.15841 5.57437C7.37232 4.96237 7.47007 4.68329 6.90766 4.12087C6.68737 3.90129 6.48974 3.69304 6.3077 3.50179C5.74599 2.91104 5.34082 2.48391 4.99728 2.47896H4.99162C4.65232 2.47896 4.12532 2.84162 3.37945 3.5875C3.38157 3.58537 3.38228 3.58466 3.38299 3.58466ZM12.7351 15.9373C10.9699 15.9373 8.66857 14.532 5.89403 11.7588C3.10887 8.97437 1.70141 6.66591 1.71197 4.89721C1.71841 3.72846 2.33112 3.12991 2.56132 2.90537C2.57337 2.8905 2.61445 2.85012 2.62862 2.83596C3.64437 1.8195 4.32932 1.40866 5.01074 1.41635C5.80195 1.42708 6.36507 2.01925 7.07766 2.76937C7.25403 2.95496 7.44528 3.15683 7.65849 3.36933C8.69266 4.4035 8.39799 5.24712 8.16141 5.92429C7.90357 6.66308 7.68045 7.30058 9.01637 8.6365C10.3537 9.97241 10.9912 9.74929 11.7272 9.48933C12.405 9.25275 13.2465 8.95666 14.2821 9.99083C14.4918 10.2005 14.6908 10.3896 14.8743 10.5646C15.6279 11.2807 16.2229 11.8467 16.233 12.64C16.2414 13.3165 15.8305 14.0057 14.8162 15.0207L14.3671 14.7161L14.7468 15.0873C14.5222 15.3175 13.9244 15.9309 12.7549 15.9373H12.7351Z" fill="#8E8E8E" stroke="#8E8E8E" stroke-width="0.5"/>
</svg>
