<svg width="37" height="34" viewBox="0 0 37 34" fill="none" xmlns="http://www.w3.org/2000/svg">
<rect x="0.361328" width="35.7548" height="34" rx="8" fill="#202A44"/>
<path d="M27.7033 13V23.2857C27.7033 24.2321 26.8643 25 25.8301 25H9.59584C8.56169 25 7.72266 24.2321 7.72266 23.2857V13C7.72266 12.0536 8.56169 11.2857 9.59584 11.2857H13.03L13.51 10.1107C13.7832 9.44286 14.4817 9 15.2622 9H20.1598C20.9403 9 21.6389 9.44286 21.912 10.1107L22.3959 11.2857H25.8301C26.8643 11.2857 27.7033 12.0536 27.7033 13ZM22.3959 18.1429C22.3959 15.7786 20.2964 13.8571 17.713 13.8571C15.1295 13.8571 13.03 15.7786 13.03 18.1429C13.03 20.5071 15.1295 22.4286 17.713 22.4286C20.2964 22.4286 22.3959 20.5071 22.3959 18.1429ZM21.1472 18.1429C21.1472 19.875 19.6057 21.2857 17.713 21.2857C15.8203 21.2857 14.2788 19.875 14.2788 18.1429C14.2788 16.4107 15.8203 15 17.713 15C19.6057 15 21.1472 16.4107 21.1472 18.1429Z" fill="white"/>
</svg>
