<svg width="21" height="21" viewBox="0 0 21 21" fill="none" xmlns="http://www.w3.org/2000/svg">
<path fill-rule="evenodd" clip-rule="evenodd" d="M6.51989 17.0424C7.11489 17.0424 7.59905 17.5257 7.59905 18.1207C7.59905 18.7157 7.11489 19.1999 6.51989 19.1999C5.92489 19.1999 5.44155 18.7157 5.44155 18.1207C5.44155 17.5257 5.92489 17.0424 6.51989 17.0424ZM15.9201 17.0424C16.516 17.0424 17.0001 17.5257 17.0001 18.1207C17.0001 18.7157 16.516 19.1999 15.9201 19.1999C15.3251 19.1999 14.8418 18.7157 14.8418 18.1207C14.8418 17.5257 15.3251 17.0424 15.9201 17.0424ZM2.95672 2.92374L4.69005 3.22374C4.96922 3.27291 5.18172 3.50457 5.20589 3.7879L5.40172 6.12207L6.12993 6.12239C6.24876 6.12244 6.36633 6.12249 6.48265 6.12254L7.81957 6.12318C7.92614 6.12323 8.03151 6.12329 8.13571 6.12334L9.61187 6.12415C9.70461 6.1242 9.79623 6.12426 9.88676 6.12431L10.9212 6.12497C11.0032 6.12503 11.0841 6.12508 11.1639 6.12514L12.0738 6.12581C12.1456 6.12586 12.2165 6.12592 12.2864 6.12598L13.0797 6.12666C13.1421 6.12672 13.2035 6.12677 13.2641 6.12683L13.7855 6.12735C13.8408 6.12741 13.8953 6.12747 13.9489 6.12752L14.5527 6.12822C14.5998 6.12828 14.6461 6.12834 14.6916 6.1284L15.2014 6.12911C15.241 6.12917 15.2798 6.12923 15.3178 6.12929L15.6419 6.12983C15.6758 6.12989 15.7091 6.12995 15.7417 6.13001L16.1026 6.13075C16.1302 6.13081 16.1572 6.13087 16.1836 6.13093L16.4058 6.13149C16.4288 6.13155 16.4512 6.13161 16.4731 6.13167L16.7113 6.13242C16.7291 6.13249 16.7465 6.13255 16.7634 6.13261L16.9032 6.13318C16.9174 6.13325 16.9312 6.13331 16.9446 6.13337L17.086 6.13414C17.0963 6.13421 17.1062 6.13427 17.1158 6.13434L17.1928 6.13492C17.2005 6.13499 17.2078 6.13505 17.2148 6.13512L17.2702 6.13571C17.2756 6.13578 17.2807 6.13584 17.2856 6.13591L17.3234 6.13651C17.3269 6.13657 17.3303 6.13664 17.3334 6.13671L17.3573 6.13731C17.3595 6.13738 17.3615 6.13745 17.3634 6.13752L17.3808 6.13833C17.3818 6.1384 17.3828 6.13847 17.3837 6.13854C17.3918 6.13929 17.393 6.13943 17.3942 6.13957C17.8584 6.20707 18.2667 6.44957 18.5451 6.82291C18.8234 7.19541 18.9401 7.65457 18.8734 8.11457L18.0826 13.5796C17.9334 14.6196 17.0301 15.4037 15.9801 15.4037H6.87922C5.78172 15.4037 4.85255 14.5471 4.76339 13.4512L4.00005 4.37291L2.74422 4.15624C2.40339 4.09624 2.17589 3.77374 2.23422 3.43291C2.29422 3.09207 2.62339 2.87041 2.95672 2.92374ZM5.96275 7.37236L5.50672 7.37207L6.00922 13.3487C6.04589 13.8087 6.42172 14.1537 6.88089 14.1537H15.9784C16.4126 14.1537 16.7834 13.8304 16.8451 13.4012L17.6367 7.9354C17.6551 7.80541 17.6226 7.67541 17.5434 7.57041C17.4651 7.46457 17.3501 7.39624 17.2201 7.37791C17.214 7.37814 17.1997 7.37835 17.1773 7.37854L17.0866 7.37905C17.0677 7.37913 17.0468 7.3792 17.0241 7.37927L16.552 7.37999C16.5122 7.38002 16.4708 7.38004 16.4279 7.38006L15.3179 7.38002C15.2559 7.38 15.1928 7.37997 15.1286 7.37994L13.8619 7.37917C13.786 7.37912 13.7092 7.37906 13.6317 7.379L12.9149 7.37843C12.8333 7.37836 12.751 7.37829 12.6682 7.37822L11.909 7.37755C11.8233 7.37747 11.7371 7.37739 11.6506 7.37732L11.1276 7.37684C11.0399 7.37675 10.9518 7.37667 10.8636 7.37659L10.0656 7.37584C9.97656 7.37576 9.88752 7.37568 9.79848 7.37559L9.26461 7.3751C9.17576 7.37502 9.08701 7.37493 8.99842 7.37485L8.46908 7.37437C8.3813 7.37429 8.29377 7.37422 8.20654 7.37414L7.43112 7.37347C7.34618 7.3734 7.2617 7.37333 7.17773 7.37326L6.19779 7.37252C6.11871 7.37246 6.04035 7.37241 5.96275 7.37236ZM14.64 9.20232C14.985 9.20232 15.265 9.48232 15.265 9.82732C15.265 10.1723 14.985 10.4523 14.64 10.4523H12.33C11.9841 10.4523 11.705 10.1723 11.705 9.82732C11.705 9.48232 11.9841 9.20232 12.33 9.20232H14.64Z" fill="#555555" stroke="#555555" stroke-width="0.2"/>
</svg>
