<svg width="16" height="16" viewBox="0 0 16 16" fill="none" xmlns="http://www.w3.org/2000/svg">
<path d="M13.2012 3.87429C11.122 3.66825 9.03036 3.5621 6.94494 3.5621C5.70867 3.5621 4.4724 3.62454 3.23613 3.74942L1.9624 3.87429" stroke="#414141" stroke-width="1.12388" stroke-linecap="round" stroke-linejoin="round"/>
<path d="M5.39648 3.24365L5.53385 2.42572C5.63375 1.83256 5.70867 1.38925 6.76387 1.38925H8.39974C9.45494 1.38925 9.53611 1.85754 9.62977 2.43196L9.76713 3.24365" stroke="#414141" stroke-width="1.12388" stroke-linecap="round" stroke-linejoin="round"/>
<path d="M11.8587 5.84732L11.4528 12.1348C11.3841 13.1151 11.3279 13.8768 9.58593 13.8768H5.57742C3.83541 13.8768 3.77921 13.1151 3.71053 12.1348L3.30469 5.84732" stroke="#414141" stroke-width="1.12388" stroke-linecap="round" stroke-linejoin="round"/>
<path d="M6.53906 10.4427H8.61824" stroke="#414141" stroke-width="1.12388" stroke-linecap="round" stroke-linejoin="round"/>
<path d="M6.021 7.94522H9.14289" stroke="#414141" stroke-width="1.12388" stroke-linecap="round" stroke-linejoin="round"/>
</svg>
