<svg width="14" height="15" viewBox="0 0 14 15" fill="none" xmlns="http://www.w3.org/2000/svg">
<path fill-rule="evenodd" clip-rule="evenodd" d="M6.7035 1.63809C6.945 1.63809 7.141 1.83409 7.141 2.07559C7.141 2.31709 6.945 2.51309 6.7035 2.51309H4.52242C3.01509 2.51309 2.0415 3.54559 2.0415 5.14334V9.99317C2.0415 11.5909 3.01509 12.6234 4.52242 12.6234H9.66975C11.1771 12.6234 12.1513 11.5909 12.1513 9.99317V7.6435C12.1513 7.402 12.3473 7.206 12.5888 7.206C12.8303 7.206 13.0263 7.402 13.0263 7.6435V9.99317C13.0263 12.0897 11.677 13.4984 9.66975 13.4984H4.52242C2.51517 13.4984 1.1665 12.0897 1.1665 9.99317V5.14334C1.1665 3.04684 2.51517 1.63809 4.52242 1.63809H6.7035ZM11.7841 2.1506L12.494 2.86052C12.8399 3.20585 13.0301 3.66494 13.0295 4.15377C13.0295 4.6426 12.8394 5.1011 12.494 5.44585L8.11377 9.8261C7.79235 10.1475 7.36419 10.3249 6.90919 10.3249H4.72402C4.60619 10.3249 4.49302 10.277 4.41077 10.1924C4.32852 10.1084 4.2836 9.99469 4.28652 9.87627L4.34135 7.67185C4.35244 7.23318 4.52919 6.82077 4.83952 6.50985H4.8401L9.19935 2.1506C9.91219 1.43894 11.0713 1.43894 11.7841 2.1506ZM8.84025 3.7466L5.45844 7.12877C5.30735 7.27985 5.2216 7.48052 5.21635 7.69344L5.1726 9.44985H6.90919C7.13085 9.44985 7.33852 9.3641 7.49544 9.20719L10.8977 5.80402L8.84025 3.7466ZM9.81769 2.76952L9.45859 3.12769L11.516 5.18569L11.8757 4.82694C12.0554 4.64727 12.1545 4.4081 12.1545 4.15377C12.1545 3.89885 12.0554 3.6591 11.8757 3.47944L11.1658 2.76952C10.7942 2.3991 10.1899 2.3991 9.81769 2.76952Z" fill="#414141" stroke="#414141" stroke-width="0.2"/>
</svg>
