<svg width="210" height="216" viewBox="0 0 210 216" fill="none" xmlns="http://www.w3.org/2000/svg">
<path d="M97.8431 195.686C151.88 195.686 195.686 151.88 195.686 97.8431C195.686 43.8058 151.88 0 97.8431 0C43.8058 0 0 43.8058 0 97.8431C0 151.88 43.8058 195.686 97.8431 195.686Z" fill="#FFDE00"/>
<path opacity="0.5" d="M203.889 132.267C203.889 128.442 209.263 121.562 209.263 121.562L205.868 107.798C205.72 107.877 146.88 50.9574 146.88 50.9574C133.214 58.0248 121.937 60.1075 114.307 57.2203C112.669 56.5985 111.178 55.6361 109.925 54.4121C106.371 50.9475 98.8201 40.8399 98.8201 40.8399C98.8201 40.8399 84.3398 68.9911 51.0757 51.7816L47.6357 65.5462C47.6357 65.5462 52.9906 72.4261 52.9906 76.251C52.9906 80.1154 52.4625 83.9945 52.4082 87.8688C52.2996 95.3952 52.8277 102.961 54.2935 110.349C56.0159 119.04 59.1005 127.411 64.0655 134.784C65.7583 137.301 67.7374 139.497 69.8991 141.476C70.1162 141.684 128.324 196.673 128.541 196.876C133.372 201.485 139.221 204.935 145.01 208.419C146.402 209.253 147.813 210.053 149.259 210.783C154.471 213.414 158.168 216 158.168 216C158.168 216 162.086 213.666 167.254 210.645C171.143 208.375 174.573 206.504 178.067 204.17C182.415 201.263 186.827 198.346 190.218 194.309C193.505 190.4 196.066 185.914 198.06 181.226C199.096 178.797 199.98 176.31 200.735 173.788C202.971 166.326 204.046 158.538 204.367 150.765C204.589 145.474 204.426 140.178 204.046 134.898C203.992 134.029 203.889 133.146 203.889 132.267Z" fill="url(#paint0_linear_350_86)"/>
<path d="M149.97 65.5463L146.574 51.7816C113.31 68.9862 98.8744 41.6494 98.8744 41.6494C98.8744 41.6494 84.3447 68.9862 51.0806 51.7816L47.6406 65.5463C47.6406 65.5463 52.9955 72.4261 52.9955 76.251C52.9955 80.1154 52.4674 83.9945 52.4131 87.8688C52.3045 95.3952 52.8326 102.961 54.2984 110.349C56.0208 119.04 59.1054 127.411 64.0704 134.784C69.3512 142.631 77.3711 147.384 85.3121 152.161C86.7482 153.025 88.1992 153.884 89.6996 154.634C95.0544 157.309 98.8744 159.989 98.8744 159.989C98.8744 159.989 102.793 157.654 107.96 154.634C111.849 152.364 115.279 150.493 118.774 148.159C123.122 145.252 127.534 142.335 130.924 138.298C134.211 134.389 136.773 129.903 138.767 125.215C139.798 122.786 140.687 120.299 141.442 117.777C143.677 110.315 144.753 102.527 145.074 94.7536C145.296 89.4629 145.133 84.1673 144.753 78.8865C144.689 78.0129 144.585 77.1295 144.585 76.251C144.59 72.4311 149.97 65.5463 149.97 65.5463Z" fill="#D2001B"/>
<path d="M149.97 65.5463L146.574 51.7816C113.31 68.9862 98.8744 41.6494 98.8744 41.6494C98.8744 41.6494 84.3447 68.9862 51.0806 51.7816L47.6406 65.5463C47.6406 65.5463 52.9955 72.4261 52.9955 76.251C52.9955 80.1154 52.4674 83.9945 52.4131 87.8688C52.3045 95.3952 52.8326 102.961 54.2984 110.349C56.0208 119.04 59.1054 127.411 64.0704 134.784C69.3512 142.631 77.3711 147.384 85.3121 152.161C86.7482 153.025 88.1992 153.884 89.6996 154.634C95.0544 157.309 98.8744 159.989 98.8744 159.989C98.8744 159.989 102.793 157.654 107.96 154.634C111.849 152.364 115.279 150.493 118.774 148.159C123.122 145.252 127.534 142.335 130.924 138.298C134.211 134.389 136.773 129.903 138.767 125.214C139.798 122.786 140.687 120.299 141.442 117.777C143.677 110.315 144.753 102.527 145.074 94.7536C145.296 89.4629 145.133 84.1673 144.753 78.8865C144.689 78.0129 144.585 77.1295 144.585 76.251C144.59 72.4311 149.97 65.5463 149.97 65.5463Z" stroke="white" stroke-width="3" stroke-miterlimit="10"/>
<path d="M98.8693 49.1412C103.454 54.4812 112.185 61.7164 125.861 61.7164C131.586 61.7164 137.528 60.4727 143.554 57.9902L145.158 64.5394C143.095 67.476 140.148 72.3422 140.148 76.2313C140.148 77.0604 140.213 77.8402 140.272 78.5213C140.292 78.7483 140.311 78.9802 140.326 79.2073C140.736 84.8286 140.834 89.8528 140.642 94.571C140.311 102.591 139.147 109.969 137.187 116.504C136.457 118.937 135.618 121.281 134.68 123.477C132.701 128.126 130.293 132.149 127.524 135.44C124.587 138.935 120.654 141.56 116.493 144.339L116.306 144.462C113.769 146.155 111.198 147.636 108.473 149.205L108.345 149.279C107.491 149.773 106.618 150.271 105.724 150.794C102.975 152.398 100.557 153.825 98.9877 154.752C97.1863 153.627 94.6644 152.147 91.6834 150.656C90.3262 149.975 88.9789 149.176 87.6019 148.346L87.2515 148.139C79.6165 143.549 72.406 139.211 67.752 132.297C63.4533 125.905 60.3884 118.231 58.6512 109.481C57.3433 102.892 56.7363 95.6419 56.8498 87.928C56.8745 86.2253 56.9979 84.5078 57.1262 82.6916C57.2742 80.604 57.4322 78.4472 57.4322 76.251C57.4322 72.3916 54.5055 67.5352 52.4524 64.5987L54.0811 58.0297C60.2157 60.5714 66.1677 61.8102 71.7989 61.8102C85.4205 61.8151 94.2251 54.5404 98.8693 49.1412ZM98.8693 42.3699L95.4984 46.2886C91.1159 51.3868 83.4464 57.4622 71.8039 57.4622C66.7649 57.4622 61.3755 56.2876 55.7838 53.9729L51.0261 51.9987L49.7775 56.9982L48.1488 63.5178L47.6553 65.4821L48.8151 67.1404C51.4308 70.8764 52.9904 74.2818 52.9904 76.2461C52.9904 78.2844 52.8423 80.3572 52.6992 82.3659C52.561 84.2561 52.4376 86.0328 52.408 87.8638C52.2945 95.8887 52.9262 103.455 54.2933 110.344C56.1441 119.677 59.431 127.894 64.0653 134.779C69.2721 142.513 76.8922 147.093 84.9615 151.949L85.3168 152.161C86.7678 153.035 88.1991 153.884 89.6994 154.634C92.6359 156.105 95.0937 157.561 96.6336 158.523L98.9236 159.954L101.248 158.577C102.773 157.674 105.177 156.258 107.96 154.634C108.844 154.116 109.702 153.622 110.541 153.139L110.684 153.055C113.473 151.451 116.108 149.936 118.773 148.154L118.956 148.031C123.393 145.069 127.578 142.271 130.924 138.293C133.974 134.666 136.615 130.263 138.767 125.21C139.768 122.865 140.667 120.363 141.442 117.767C143.504 110.877 144.728 103.129 145.079 94.7437C145.281 89.8528 145.178 84.6608 144.758 78.8766C144.743 78.6446 144.724 78.4077 144.704 78.1758L144.699 78.1412C144.645 77.5095 144.59 76.863 144.59 76.2214C144.59 74.2423 146.16 70.8271 148.79 67.091L149.95 65.4377L149.471 63.4783L147.867 56.9341L146.638 51.9198L141.861 53.884C136.378 56.1444 130.993 57.2894 125.861 57.2894C114.149 57.2894 106.549 51.3078 102.24 46.2836L98.8693 42.3699Z" fill="#FCFCFC"/>
<path d="M111.168 95.3755V88.6634C111.168 85.564 110.077 82.7262 108.202 80.5448C105.912 77.8797 102.63 76.1918 98.8544 76.1918C91.9795 76.1918 86.4914 81.7885 86.4914 88.6634V95.3755H83.0366V122.026H114.623V95.3755H111.168ZM101.026 108.844V114.766H96.8457C96.8457 114.441 96.8457 108.844 96.8457 108.844C96.0116 108.212 95.4638 107.176 95.4638 106.001C95.4638 104.076 97.0678 102.517 98.9926 102.517C98.9975 102.517 99.0123 102.517 99.0172 102.517C99.0222 102.517 99.0321 102.517 99.0321 102.517C100.957 102.517 102.507 104.076 102.507 106.001C102.507 107.176 101.86 108.217 101.026 108.844ZM105.246 95.3755H91.9202V88.0218C91.9202 84.0686 94.6297 80.8458 98.5829 80.8458C102.541 80.8458 105.246 84.0686 105.246 88.0218V95.3755Z" fill="#FCFCFC"/>
<defs>
<linearGradient id="paint0_linear_350_86" x1="85.4079" y1="73.1387" x2="200.748" y2="186.356" gradientUnits="userSpaceOnUse">
<stop stop-color="#957200"/>
<stop offset="1" stop-color="#FFCB21" stop-opacity="0"/>
</linearGradient>
</defs>
</svg>
