<svg width="41" height="41" viewBox="0 0 41 41" fill="none" xmlns="http://www.w3.org/2000/svg">
<rect x="0.753906" y="0.913086" width="40" height="40" rx="8" fill="#202A44"/>
<path d="M31.4841 30.9189H11.1036C9.80478 30.9189 8.75195 29.85 8.75195 28.5312V14.2051C8.75195 12.8864 9.80478 11.8174 11.1036 11.8174H31.4841C32.7828 11.8174 33.8357 12.8864 33.8357 14.2051V28.5312C33.8357 29.85 32.7828 30.9189 31.4841 30.9189ZM14.239 14.603C12.7238 14.603 11.4955 15.8502 11.4955 17.3887C11.4955 18.9271 12.7238 20.1743 14.239 20.1743C15.7542 20.1743 16.9825 18.9271 16.9825 17.3887C16.9825 15.8502 15.7542 14.603 14.239 14.603ZM11.8874 27.7354H30.7002V22.1641L26.4127 17.8107C26.1831 17.5776 25.8109 17.5776 25.5813 17.8107L18.9422 24.5518L16.2224 21.7902C15.9929 21.5571 15.6206 21.5571 15.391 21.7902L11.8874 25.3477V27.7354Z" fill="white"/>
</svg>
