<svg width="21" height="21" viewBox="0 0 21 21" fill="none" xmlns="http://www.w3.org/2000/svg">
<path d="M17.6478 7.39769L17.6478 7.3977L17.6494 7.39893C17.9729 7.64643 18.1603 8.01765 18.166 8.41103V15.6803C18.166 16.8589 17.1944 17.8203 15.9968 17.8203H14.4096C14.2422 17.816 14.1168 17.6867 14.1168 17.5295V14.9662C14.1168 13.9136 13.2547 13.0587 12.1968 13.0587L9.78762 13.0587L9.78695 13.0587C8.73684 13.0657 7.88012 13.9197 7.88012 14.9662V17.3682C7.87015 17.4171 7.86428 17.4688 7.86428 17.5212C7.86428 17.6837 7.72802 17.8203 7.55512 17.8203H5.95178C4.75414 17.8203 3.78262 16.8589 3.78262 15.6803V8.425C3.78662 8.02464 3.97369 7.65347 4.31062 7.39746L4.31064 7.39749L4.3127 7.39584L9.76885 3.01791C9.76894 3.01784 9.76903 3.01777 9.76912 3.0177C10.4728 2.46085 11.4528 2.461 12.1537 3.01611C12.1538 3.01615 12.1538 3.01619 12.1539 3.01623L17.6478 7.39769ZM14.3911 19.2703L14.3911 19.2703H14.3935H15.9968C17.9921 19.2703 19.616 17.6605 19.616 15.6803L19.616 8.40117L19.6159 8.39985C19.6047 7.55127 19.209 6.76603 18.5408 6.25648C18.5405 6.25625 18.5402 6.25602 18.5399 6.2558L13.0566 1.88216L13.0564 1.88197C11.8233 0.904762 10.101 0.904837 8.86552 1.88362L8.86502 1.88402L3.42028 6.25398C2.7371 6.77187 2.34126 7.55889 2.33262 8.41767H2.33262V8.41867V15.6803C2.33262 17.6605 3.9565 19.2703 5.95178 19.2703H7.55512C8.45728 19.2703 9.20291 18.5916 9.30266 17.7204C9.32146 17.6561 9.33012 17.5893 9.33012 17.5212V14.9662C9.33012 14.7177 9.53828 14.5102 9.792 14.5087H12.1968C12.4579 14.5087 12.6668 14.716 12.6668 14.9662V17.5295C12.6668 18.4833 13.4196 19.2474 14.3911 19.2703Z" fill="#D2001B" stroke="#D2001B" stroke-width="0.2"/>
</svg>
