<svg width="16" height="17" viewBox="0 0 16 17" fill="none" xmlns="http://www.w3.org/2000/svg">
<g clip-path="url(#clip0_347_284)">
<path d="M12.6662 7.91278H3.33285C2.59647 7.91278 1.99951 8.50973 1.99951 9.24611V13.9128C1.99951 14.6492 2.59647 15.2461 3.33285 15.2461H12.6662C13.4026 15.2461 13.9995 14.6492 13.9995 13.9128V9.24611C13.9995 8.50973 13.4026 7.91278 12.6662 7.91278Z" stroke="#8E8E8E" stroke-width="1.68224" stroke-linecap="round" stroke-linejoin="round"/>
<path d="M4.66651 7.91274V5.24607C4.66567 4.41943 4.97203 3.62198 5.52609 3.00851C6.08015 2.39505 6.84239 2.00934 7.66484 1.92626C8.48729 1.84319 9.31127 2.06867 9.97682 2.55894C10.6424 3.04922 11.102 3.7693 11.2665 4.5794" stroke="#8E8E8E" stroke-width="1.68224" stroke-linecap="round" stroke-linejoin="round"/>
</g>
<defs>
<clipPath id="clip0_347_284">
<rect width="16" height="16" fill="white" transform="translate(0 0.57943)"/>
</clipPath>
</defs>
</svg>
