<svg width="79" height="90" viewBox="0 0 79 90" fill="none" xmlns="http://www.w3.org/2000/svg">
<path d="M39.375 0C61.3125 0 78.75 6.1875 78.75 14.0625V73.125C78.75 76.2363 76.2363 78.75 73.125 78.75V84.375C73.125 87.4863 70.6113 90 67.5 90H61.875C58.7637 90 56.25 87.4863 56.25 84.375V78.75H22.5V84.375C22.5 87.4863 19.9863 90 16.875 90H11.25C8.13867 90 5.625 87.4863 5.625 84.375V78.75C2.51367 78.75 0 76.2363 0 73.125V14.0625C0 6.1875 17.4375 0 39.375 0ZM11.25 22.5V45C11.25 48.1113 13.7637 50.625 16.875 50.625H61.875C64.9863 50.625 67.5 48.1113 67.5 45V22.5C67.5 19.3887 64.9863 16.875 61.875 16.875H16.875C13.7637 16.875 11.25 19.3887 11.25 22.5ZM14.0625 70.3125C17.1738 70.3125 19.6875 67.7988 19.6875 64.6875C19.6875 61.5762 17.1738 59.0625 14.0625 59.0625C10.9512 59.0625 8.4375 61.5762 8.4375 64.6875C8.4375 67.7988 10.9512 70.3125 14.0625 70.3125ZM64.6875 70.3125C67.7988 70.3125 70.3125 67.7988 70.3125 64.6875C70.3125 61.5762 67.7988 59.0625 64.6875 59.0625C61.5762 59.0625 59.0625 61.5762 59.0625 64.6875C59.0625 67.7988 61.5762 70.3125 64.6875 70.3125Z" fill="url(#paint0_linear_4_13)"/>
<defs>
<linearGradient id="paint0_linear_4_13" x1="39.375" y1="0" x2="39.375" y2="90" gradientUnits="userSpaceOnUse">
<stop stop-color="#F95F6B"/>
<stop offset="1"/>
</linearGradient>
</defs>
</svg>
