<svg width="12553" height="12553" viewBox="0 0 12553 12553" fill="none" xmlns="http://www.w3.org/2000/svg">
<circle cx="6276.5" cy="6276.5" r="6276.5" fill="#D2001B"/>
<path d="M6022.82 1990.61C5377.23 2076.98 4832.65 2464.92 4545.72 3040.24C4330.52 3469.17 4257.32 4085.49 4361.26 4572.97C4523.76 5328.36 5137.14 6414.59 5980.36 7442.26C6135.54 7632.57 6169.21 7664.78 6230.69 7685.28C6356.59 7726.27 6419.54 7677.96 6687.44 7342.72C7634.6 6152.55 8211.38 5035.57 8267.01 4281.65C8300.68 3841.01 8214.31 3394.51 8025.47 3024.14C7759.03 2502.98 7287.65 2145.79 6696.22 2016.96C6542.51 1983.29 6179.46 1968.65 6022.82 1990.61ZM6440.04 3315.46C6808.94 3398.91 7034.39 3783.92 6923.13 4142.58C6867.5 4325.57 6751.85 4460.25 6573.25 4548.09C6466.39 4600.79 6460.53 4602.25 6293.64 4602.25C6126.76 4602.25 6120.9 4600.79 6014.03 4548.09C5599.74 4343.14 5504.59 3823.44 5823.72 3496.99C5914.49 3403.3 6016.96 3344.74 6144.32 3315.46C6255.58 3287.65 6319.99 3287.65 6440.04 3315.46Z" fill="white"/>
<path d="M6229.21 3745.86C6101.85 3785.39 6040.37 3933.24 6100.39 4053.28C6201.4 4256.77 6513.22 4177.72 6513.22 3949.35C6513.22 3817.59 6358.04 3706.33 6229.21 3745.86Z" fill="white"/>
<path d="M3968.89 5987.12C3942.54 6004.69 3908.87 6042.75 3894.23 6072.03C3840.07 6177.43 2967.57 8226.92 2973.42 8232.78C2976.35 8235.71 3469.69 7988.3 4071.37 7680.88L5163.45 7124.59L4968.75 6836.19C4788.69 6568.3 4567.64 6212.56 4471.02 6032.5L4430.03 5956.38H4223.61C4039.16 5956.38 4012.81 5960.77 3968.89 5987.12Z" fill="white"/>
<path d="M8116.2 6032.52C7861.48 6506.83 7327.14 7284.18 6917.24 7773.13C6745.97 7978.08 6685.94 8032.24 6565.9 8087.87C6309.72 8204.98 6019.86 8147.89 5819.3 7942.94C5753.42 7875.6 5489.92 7557.93 5435.75 7481.81C5432.83 7477.41 5068.31 7664.8 5049.28 7679.44C5046.35 7682.36 5378.66 8020.53 5788.56 8431.89C6293.61 8935.48 6542.48 9175.57 6558.58 9172.64C6579.08 9166.78 9382.49 7717.5 9392.74 7707.25C9397.13 7702.86 8719.34 6121.82 8687.13 6058.87C8675.42 6036.91 8643.21 6003.24 8616.86 5987.14C8571.48 5959.32 8543.66 5956.4 8362.14 5956.4H8157.19L8116.2 6032.52Z" fill="white"/>
<path d="M3651.22 8387.97L2685.03 8882.78L2616.23 9040.88C2578.17 9127.25 2545.96 9220.94 2545.96 9247.29C2545.96 9321.96 2597.2 9406.86 2663.07 9440.53C2720.17 9469.81 2745.05 9469.81 4361.23 9469.81H6002.29L6059.38 9436.14C6091.59 9418.57 6117.94 9401.01 6117.94 9396.62C6117.94 9392.22 5779.77 9052.59 5368.41 8641.23L4617.41 7893.16L3651.22 8387.97Z" fill="white"/>
<path d="M8267 8789.1L6967.03 9462.51L8416.32 9466.9C9845.11 9469.83 9867.06 9469.83 9924.16 9440.55C9990.03 9406.88 10041.3 9323.43 10041.3 9248.77C10041.3 9210.71 9646.01 8260.62 9581.6 8144.97C9566.96 8115.7 9501.08 8147.9 8267 8789.1Z" fill="white"/>
</svg>
