<svg width="24" height="24" viewBox="0 0 24 24" fill="none" xmlns="http://www.w3.org/2000/svg">
<path d="M12.0201 2.9099C8.71009 2.9099 6.02009 5.5999 6.02009 8.9099V11.7999C6.02009 12.4099 5.76009 13.3399 5.45009 13.8599L4.30009 15.7699C3.59009 16.9499 4.08009 18.2599 5.38009 18.6999C9.69009 20.1399 14.3401 20.1399 18.6501 18.6999C19.8601 18.2999 20.3901 16.8699 19.7301 15.7699L18.5801 13.8599C18.2801 13.3399 18.0201 12.4099 18.0201 11.7999V8.9099C18.0201 5.6099 15.3201 2.9099 12.0201 2.9099Z" stroke="#111111" stroke-width="1.5" stroke-miterlimit="10" stroke-linecap="round"/>
<path d="M13.8699 3.19993C13.5599 3.10993 13.2399 3.03993 12.9099 2.99993C11.9499 2.87993 11.0299 2.94993 10.1699 3.19993C10.4599 2.45993 11.1799 1.93993 12.0199 1.93993C12.8599 1.93993 13.5799 2.45993 13.8699 3.19993Z" stroke="#111111" stroke-width="1.5" stroke-miterlimit="10" stroke-linecap="round" stroke-linejoin="round"/>
<path d="M15.02 19.06C15.02 20.71 13.67 22.06 12.02 22.06C11.2 22.06 10.44 21.72 9.90002 21.18C9.36002 20.64 9.02002 19.88 9.02002 19.06" stroke="#111111" stroke-width="1.5" stroke-miterlimit="10"/>
</svg>
