<svg width="201" height="216" viewBox="0 0 201 216" fill="none" xmlns="http://www.w3.org/2000/svg">
<path d="M98.9124 197.825C153.54 197.825 197.825 153.54 197.825 98.9124C197.825 44.2846 153.54 0 98.9124 0C44.2846 0 0 44.2846 0 98.9124C0 153.54 44.2846 197.825 98.9124 197.825Z" fill="#FFDE00"/>
<path opacity="0.5" d="M195.789 140.956C195.789 137.528 200.656 131.362 200.656 131.362L197.581 119.026C197.447 119.097 144.165 68.0839 144.165 68.0839C131.79 74.418 121.578 76.2845 114.669 73.697C113.185 73.1397 111.835 72.2771 110.7 71.1802C107.482 68.0751 100.645 59.0164 100.645 59.0164C100.645 59.0164 87.5321 84.2463 57.4099 68.8226L54.2949 81.1589C54.2949 81.1589 59.144 87.3248 59.144 90.7528C59.144 94.2162 58.6658 97.6928 58.6166 101.165C58.5183 107.91 58.9965 114.691 60.3238 121.313C61.8836 129.102 64.6768 136.604 69.1728 143.212C70.7057 145.468 72.4978 147.436 74.4553 149.21C74.652 149.396 127.361 198.679 127.558 198.86C131.933 202.991 137.229 206.083 142.472 209.206C143.732 209.953 145.01 210.67 146.319 211.325C151.039 213.682 154.386 216 154.386 216C154.386 216 157.935 213.908 162.614 211.201C166.136 209.166 169.242 207.49 172.406 205.398C176.343 202.792 180.339 200.178 183.409 196.56C186.386 193.057 188.705 189.036 190.511 184.834C191.449 182.658 192.249 180.429 192.933 178.168C194.957 171.481 195.932 164.501 196.222 157.534C196.423 152.793 196.276 148.046 195.932 143.314C195.883 142.535 195.789 141.743 195.789 140.956Z" fill="url(#paint0_linear_350_119)"/>
<path d="M111.063 64.8181C111.21 64.0837 111.02 63.3221 110.545 62.7429C110.07 62.1637 109.361 61.8279 108.612 61.8279H62.1881C59.7702 61.8279 57.6485 62.7646 55.9277 64.4855C54.2068 66.2064 53.27 68.328 53.27 70.7459V126.369C53.27 128.787 54.2068 130.908 55.9277 132.629C57.6485 134.35 59.7702 135.287 62.1881 135.287H134.926C137.344 135.287 139.465 134.35 141.186 132.629C142.907 130.908 143.844 128.787 143.844 126.369V84.3307C143.844 83.3676 143.291 82.4901 142.422 82.0749C141.552 81.6598 140.522 81.7807 139.773 82.3859C138.129 83.714 136.357 84.7149 134.452 85.4019C132.554 86.0865 130.577 86.4303 128.508 86.4303C127.05 86.4303 125.676 86.272 124.38 85.9635C123.076 85.6529 121.794 85.1853 120.534 84.5549C119.737 84.1565 118.788 84.2122 118.044 84.701L98.5564 97.4927L64.6881 75.279V75.0317L97.1944 96.1608C98.0259 96.7013 99.0983 96.6992 99.9276 96.1555L116.08 85.5657C116.724 85.1432 117.138 84.4471 117.201 83.6791C117.264 82.911 116.969 82.1569 116.402 81.6352C114.84 80.1983 113.577 78.5307 112.605 76.6196C111.639 74.718 111.027 72.671 110.775 70.462C110.773 70.4465 110.771 70.431 110.769 70.4155C110.648 69.5093 110.618 68.606 110.678 67.7032L108.184 67.5369L110.678 67.7032C110.742 66.7442 110.87 65.7827 111.063 64.8181Z" fill="#D2001B" stroke="white" stroke-width="5" stroke-linejoin="round"/>
<path d="M117.316 59.8105L119.437 61.9318L117.316 59.8105C114.461 62.6654 113.014 66.214 113.014 70.2752C113.014 74.3365 114.461 77.8851 117.316 80.74C120.171 83.5949 123.719 85.0416 127.781 85.0416C131.842 85.0416 135.39 83.5949 138.245 80.74C141.1 77.8851 142.547 74.3365 142.547 70.2752C142.547 66.214 141.1 62.6654 138.245 59.8105C135.39 56.9556 131.842 55.5089 127.781 55.5089C123.719 55.5089 120.171 56.9556 117.316 59.8105Z" fill="#3C95FF" stroke="white" stroke-width="6" stroke-linejoin="round"/>
<defs>
<linearGradient id="paint0_linear_350_119" x1="88.4992" y1="87.9635" x2="191.884" y2="190.501" gradientUnits="userSpaceOnUse">
<stop stop-color="#957200"/>
<stop offset="1" stop-color="#FFCB21" stop-opacity="0"/>
</linearGradient>
</defs>
</svg>
