<svg width="20" height="21" viewBox="0 0 20 21" fill="none" xmlns="http://www.w3.org/2000/svg">
<path d="M18.8497 9.2498V9.24976L18.8488 7.08813C18.8488 7.08812 18.8488 7.0881 18.8488 7.08809C18.8488 5.1911 17.2898 3.64896 15.3755 3.64896H4.20717C2.29291 3.64896 0.733862 5.1911 0.733841 7.08809C0.733841 7.0881 0.733841 7.08812 0.733841 7.08813L0.733008 9.31976V9.3198C0.733008 9.51105 0.809191 9.69657 0.94563 9.83217C1.08119 9.96856 1.26585 10.0448 1.45801 10.0448C2.08807 10.0448 2.54717 10.4792 2.54717 11.0415C2.54717 11.6278 2.06042 12.1081 1.45801 12.1081C1.05778 12.1081 0.733008 12.4329 0.733008 12.8331V14.9931C0.733008 16.8901 2.29207 18.4323 4.20634 18.4323H15.3763C17.2906 18.4323 18.8497 16.8901 18.8497 14.9931V12.8331C18.8497 12.4329 18.5249 12.1081 18.1247 12.1081C17.5223 12.1081 17.0355 11.6278 17.0355 11.0415C17.0355 10.4551 17.5223 9.9748 18.1247 9.9748C18.3167 9.9748 18.5013 9.89865 18.6368 9.76242C18.7734 9.6268 18.8497 9.44117 18.8497 9.2498ZM12.0572 5.09896H15.3755C16.4926 5.09896 17.3988 5.9932 17.3988 7.08813V7.08818L17.3996 8.62975C16.3521 8.93949 15.5855 9.90195 15.5855 11.0415C15.5855 12.1802 16.3529 13.1434 17.3997 13.4532V14.9931C17.3997 16.0881 16.4935 16.9823 15.3763 16.9823H12.0572L12.0577 15.8419V15.8419C12.0577 15.4407 11.7328 15.1169 11.3327 15.1169C10.9325 15.1169 10.6077 15.4407 10.6077 15.8418C10.6077 15.8419 10.6077 15.8419 10.6077 15.8419L10.6072 16.9823H4.20634C3.08921 16.9823 2.18301 16.0881 2.18301 14.9931V13.4532C3.22974 13.1434 3.99717 12.1802 3.99717 11.0415C3.99717 9.91222 3.24127 8.98622 2.18305 8.6926L2.18384 7.08818V7.08813C2.18384 5.9932 3.09004 5.09896 4.20717 5.09896H10.6072L10.6077 6.59996C10.6077 6.59997 10.6077 6.59998 10.6077 6.59999C10.6077 7.00021 10.9325 7.32496 11.3327 7.32496C11.7329 7.32496 12.0577 7.00019 12.0577 6.59996V6.59993L12.0572 5.09896ZM12.0577 8.96105C12.0577 8.56082 11.7329 8.23605 11.3327 8.23605C10.9324 8.23605 10.6077 8.56082 10.6077 8.96105V12.9785C10.6077 13.3788 10.9324 13.7035 11.3327 13.7035C11.7329 13.7035 12.0577 13.3788 12.0577 12.9785V8.96105Z" fill="#555555" stroke="#555555" stroke-width="0.2"/>
</svg>
