<svg width="512" height="512" viewBox="0 0 512 512" fill="none" xmlns="http://www.w3.org/2000/svg">
<g clip-path="url(#clip0_1_234)">
<mask id="mask0_1_234" style="mask-type:luminance" maskUnits="userSpaceOnUse" x="206" y="91" width="155" height="178">
<path d="M206.036 91.0001H360.558V268.563H206.036V91.0001Z" fill="white"/>
</mask>
<g mask="url(#mask0_1_234)">
<path fill-rule="evenodd" clip-rule="evenodd" d="M347.99 176.752C335.756 197.193 305.063 227.784 255.866 268.541C255.866 268.541 239.569 254.188 206.99 225.519C206.487 225.199 206.225 224.594 206.334 224.012C206.436 223.408 206.859 222.934 207.47 222.803C208.046 222.643 208.657 222.854 209.029 223.357C233.889 238.867 264.561 239.683 289.734 226.888C313.408 214.866 333.302 189.437 342.39 165.036C347.699 152.591 347.385 138.478 341.545 126.267C335.705 114.055 324.899 104.952 311.85 101.26C295.414 97.7286 278.244 100.365 263.607 108.622C292.931 80.0262 349.92 85.9392 359.379 128.64C362.546 142.964 358.774 159.028 347.99 176.774V176.752Z" fill="#002D69"/>
</g>
<mask id="mask1_1_234" style="mask-type:luminance" maskUnits="userSpaceOnUse" x="150" y="91" width="185" height="132">
<path d="M150.839 91H334.664V222.752H150.839V91Z" fill="white"/>
</mask>
<g mask="url(#mask1_1_234)">
<path fill-rule="evenodd" clip-rule="evenodd" d="M199.038 151.877L247.36 109.569C234.683 96.5635 216.769 90.0534 198.673 91.8156C164.113 95.1944 142.821 121.519 153.86 155.7C159.358 172.711 172.036 191.549 191.909 212.222C192.353 212.565 192.986 212.594 193.489 212.332C193.991 212.07 194.282 211.516 194.261 210.963C194.231 210.38 193.86 209.907 193.336 209.696L185.275 199.355C184.299 197.979 184.219 196.188 185.034 194.739C185.857 193.289 187.445 192.445 189.105 192.547C190.773 192.678 192.222 193.763 192.804 195.321C196.474 201.831 201.921 207.613 209.21 212.674C221.866 222.963 239.168 224.886 253.652 218.055C256.346 216.788 259.405 215.681 258.058 212.011C256.922 208.953 251.824 208.348 242.736 210.22C228.711 212.011 222.129 208.319 223.002 199.195C227.175 202.916 234.122 203.419 243.872 200.673C263.395 194.899 278.666 195.423 289.683 202.253C295.232 205.101 301.596 203.47 308.784 197.353C331.926 177.619 345.295 144.886 323.209 118.693C308.412 104.348 289.101 101.501 265.296 110.122L312.141 151.986C314.281 154.302 314.121 157.914 311.82 160.076C309.526 162.247 305.907 162.137 303.715 159.873L255.975 117.645L207.361 161.263C205.701 162.851 203.29 163.404 201.127 162.691C198.936 162.006 197.297 160.157 196.875 157.892C196.452 155.649 197.268 153.326 199.067 151.877H199.038ZM237.61 161.161V144.333H254.468V161.161H237.61ZM237.61 164.671H254.468V181.5H237.61V164.671ZM257.985 161.161V144.333H274.835V161.161H257.985ZM257.985 164.671H274.835V181.5H257.985V164.671Z" fill="#BA0000"/>
</g>
<path d="M63.4279 361.801H89.1987C101.374 361.801 108.372 356.077 108.372 346.13C108.372 339.052 104.556 334.282 97.7913 332.848V332.768C103.362 331.26 106.617 326.964 106.617 320.84C106.617 311.213 100.26 305.722 89.1186 305.722H63.4279V361.801ZM70.0326 329.986V311.614H88.3248C95.8034 311.614 100.1 315.029 100.1 320.84C100.1 326.643 95.8034 329.986 88.3248 329.986H70.0326ZM70.0326 355.917V335.87H88.3248C96.8374 335.87 101.847 339.533 101.847 345.817C101.847 352.254 96.8374 355.917 88.3248 355.917H70.0326Z" fill="#BA0000"/>
<path d="M133.729 363.389C142.715 363.389 150.274 358.86 152.902 352.415L147.652 350.267C145.424 354.644 140.094 357.906 133.809 357.906C125.136 357.906 118.699 352.095 117.825 343.75H151.628C151.708 342.949 151.708 342.075 151.708 341.361C151.548 328.953 143.829 320.04 132.062 320.04C120.126 320.04 111.541 328.953 111.541 341.281C111.541 354.083 120.927 363.389 133.729 363.389ZM117.905 338.419C119.012 330.781 124.503 325.61 131.981 325.61C139.3 325.61 144.47 330.227 145.264 338.419H117.905Z" fill="#BA0000"/>
<path d="M174.679 363.389C181.524 363.389 187.649 359.1 188.763 352.094L183.826 350.026C183.032 355.197 179.296 358.146 175.24 358.146C170.864 358.146 168.082 354.883 168.082 350.347V326.644H186.054V321.634H168.082V308.272L162.031 309.706V321.634H153.205V326.644H162.031V350.98C162.031 358.299 167.128 363.389 174.679 363.389Z" fill="#BA0000"/>
<path d="M208.951 363.389C215.796 363.389 221.92 359.1 223.034 352.094L218.097 350.026C217.304 355.197 213.568 358.146 209.512 358.146C205.135 358.146 202.354 354.883 202.354 350.347V326.644H220.326V321.634H202.354V308.272L196.302 309.706V321.634H187.477V326.644H196.302V350.98C196.302 358.299 201.4 363.389 208.951 363.389Z" fill="#BA0000"/>
<path d="M246.326 363.389C255.312 363.389 262.871 358.86 265.5 352.415L260.249 350.267C258.021 354.644 252.691 357.906 246.406 357.906C237.734 357.906 231.296 352.095 230.422 343.75H264.225C264.305 342.949 264.305 342.075 264.305 341.361C264.145 328.953 256.426 320.04 244.659 320.04C232.724 320.04 224.138 328.953 224.138 341.281C224.138 354.083 233.525 363.389 246.326 363.389ZM230.503 338.419C231.609 330.781 237.1 325.61 244.579 325.61C251.897 325.61 257.067 330.227 257.861 338.419H230.503Z" fill="#BA0000"/>
<path d="M287.197 319.966C282.107 319.966 277.81 323.068 275.589 327.918H275.509L274.949 321.634H269.778V361.801H275.822V339.686C275.822 330.94 279.878 325.61 286.323 325.61C290.699 325.61 293.641 328.632 294.275 334.282L299.525 332.527C298.731 324.495 294.042 319.966 287.197 319.966Z" fill="#BA0000"/>
<path d="M324.325 361.801H359.643V355.917H330.93V305.722H324.325V361.801Z" fill="#BA0000"/>
<path d="M366.476 313.843C369.098 313.843 371.005 312.088 371.005 309.386C371.005 306.758 369.098 305.01 366.476 305.01C363.767 305.01 362.02 306.758 362.02 309.386C362.02 312.088 363.767 313.843 366.476 313.843ZM363.374 361.802H369.418V321.635H363.374V361.802Z" fill="#BA0000"/>
<path d="M381.42 361.802H387.471L387.391 326.644H404.729V321.634H387.391V315.671C387.391 310.741 390.413 307.398 394.629 307.398C398.605 307.398 401.947 310.5 402.821 314.636L408.152 312.408C406.717 306.444 401.467 302.148 394.389 302.148C386.59 302.148 381.347 307.238 381.347 314.636V321.634H372.514V326.644H381.347L381.42 361.802Z" fill="#BA0000"/>
<path d="M431.125 363.389C440.111 363.389 447.669 358.86 450.298 352.415L445.048 350.267C442.819 354.644 437.489 357.906 431.205 357.906C422.532 357.906 416.095 352.095 415.221 343.75H449.024C449.104 342.949 449.104 342.075 449.104 341.361C448.944 328.953 441.225 320.04 429.457 320.04C417.522 320.04 408.937 328.953 408.937 341.281C408.937 354.083 418.323 363.389 431.125 363.389ZM415.301 338.419C416.408 330.781 421.898 325.61 429.377 325.61C436.695 325.61 441.866 330.227 442.659 338.419H415.301Z" fill="#BA0000"/>
<path d="M0 413.78H5.7236C11.9278 413.78 15.0299 409.906 15.0299 403.28C15.0299 396.661 11.9278 392.757 5.7236 392.757H0V413.78ZM2.47586 411.574V394.964H5.7236C10.3476 394.964 12.5541 398.066 12.5832 403.28C12.5832 408.501 10.3476 411.574 5.7236 411.574H2.47586Z" fill="#373435"/>
<path d="M26.1823 414.196C29.9689 414.196 32.4156 411.064 32.4156 406.207C32.4156 401.401 29.9689 398.306 26.1823 398.306C22.3957 398.306 19.9489 401.401 19.9489 406.207C19.9489 411.064 22.3957 414.196 26.1823 414.196ZM26.1823 412.142C23.7647 412.142 22.2136 409.812 22.2136 406.207C22.2136 402.654 23.7647 400.389 26.1823 400.389C28.5634 400.389 30.1145 402.654 30.1145 406.207C30.1145 409.812 28.5634 412.142 26.1823 412.142Z" fill="#373435"/>
<path d="M37.7824 413.78H40.047V404.598C40.047 401.94 41.3287 400.389 43.4186 400.389C45.0861 400.389 46.0401 401.372 46.0401 403.076L46.011 413.78H48.3048L48.3412 404.598C48.3412 401.94 49.5937 400.389 51.6763 400.389C53.3511 400.389 54.3051 401.372 54.3051 403.076L54.2759 413.78H56.5698L56.5989 403.076C56.5989 400.09 54.9896 398.306 52.2734 398.306C50.4529 398.306 48.8728 399.26 47.9771 400.811H47.9479C47.3508 399.26 45.8944 398.306 44.0157 398.306C42.2243 398.306 40.7315 399.195 39.9888 400.717H39.9597L39.7485 398.721H37.7824V413.78Z" fill="#373435"/>
<path d="M63.7543 395.793C64.7374 395.793 65.4219 395.109 65.4219 394.126C65.4219 393.172 64.7374 392.487 63.7543 392.487C62.7713 392.487 62.1159 393.172 62.1159 394.126C62.1159 395.109 62.7713 395.793 63.7543 395.793ZM62.6184 413.779H64.8903V398.72H62.6184V413.779Z" fill="#373435"/>
<path d="M76.5753 414.196C79.7066 414.196 81.8839 411.989 82.4227 408.326L80.2745 407.758C79.9177 410.533 78.5196 412.2 76.5753 412.2C74.2233 412.2 72.7596 409.965 72.7596 406.266C72.7596 402.537 74.0121 400.302 76.0729 400.302C77.5293 400.302 78.6652 401.7 79.0803 404.001L81.2285 403.404C80.6605 400.243 78.7235 398.306 76.102 398.306C72.6139 398.306 70.524 401.314 70.4949 406.266C70.4658 411.217 72.7596 414.196 76.5753 414.196Z" fill="#373435"/>
<path d="M88.8336 395.793C89.8167 395.793 90.5012 395.109 90.5012 394.126C90.5012 393.172 89.8167 392.487 88.8336 392.487C87.8506 392.487 87.1952 393.172 87.1952 394.126C87.1952 395.109 87.8506 395.793 88.8336 395.793ZM87.6977 413.779H89.9696V398.72H87.6977V413.779Z" fill="#373435"/>
<path d="M96.172 413.781H98.4367V391.862H96.172V413.781Z" fill="#373435"/>
<path d="M105.743 395.793C106.726 395.793 107.411 395.109 107.411 394.126C107.411 393.172 106.726 392.487 105.743 392.487C104.76 392.487 104.105 393.172 104.105 394.126C104.105 395.109 104.76 395.793 105.743 395.793ZM104.607 413.779H106.879V398.72H104.607V413.779Z" fill="#373435"/>
<path d="M116.628 414.079C118.448 414.079 119.912 413.242 120.771 411.691H120.8L120.895 412.018C121.135 413.212 121.965 414.079 123.371 414.079C124.296 414.079 125.337 413.722 126.021 412.827L125.068 411.246C124.558 411.814 124.201 411.989 123.815 411.989C123.371 411.989 123.101 411.661 123.101 411.006V403.52C123.101 400.389 121.223 398.306 118.033 398.306C114.836 398.306 112.63 400.418 112.572 403.222L114.574 404.059C114.603 401.998 115.914 400.389 117.968 400.389C119.672 400.389 120.924 401.467 120.924 403.251C120.924 404.117 120.414 404.627 119.73 404.685L117.705 404.955C113.912 405.428 112.186 407.365 112.186 409.877C112.186 412.47 114.065 414.079 116.628 414.079ZM117.196 412.018C115.616 412.018 114.45 411.159 114.45 409.724C114.45 408.29 115.645 407.219 118.091 406.863L120.8 406.535V407.518C120.8 410.169 119.315 412.018 117.196 412.018Z" fill="#373435"/>
<path d="M135.864 398.306C134.342 398.306 133.118 399.319 132.579 401.074H132.55L132.317 398.721H130.497V413.78H132.761V406.054C132.761 402.479 133.744 400.302 135.325 400.302C136.577 400.302 137.327 401.496 137.327 403.819L139.322 403.193C139.322 400.032 138.012 398.306 135.864 398.306Z" fill="#373435"/>
<path d="M148.239 420.458C151.996 420.458 154.261 417.982 154.261 413.809L154.232 398.721H151.967V409.455C151.967 411.516 150.831 412.739 148.923 412.739C147.314 412.739 146.36 411.632 146.36 409.841V398.721H144.095V409.841C144.095 412.972 145.704 414.792 148.421 414.792C149.943 414.792 151.282 413.962 151.967 412.557H151.996V413.809C151.996 416.7 150.532 418.404 148.268 418.404C146.389 418.404 144.925 417.239 144.183 415.273L142.304 416.7C143.345 419.06 145.552 420.458 148.239 420.458Z" fill="#373435"/>
<path d="M176.27 414.29C180.413 414.29 183.457 411.187 184.207 405.966L181.848 405.34C181.28 409.578 179.131 412.083 176.27 412.083C172.541 412.083 170.335 408.799 170.335 403.279C170.335 397.738 172.308 394.424 175.585 394.424C178.003 394.424 179.699 396.456 180.296 400.184L182.656 399.616C181.877 394.876 179.313 392.218 175.672 392.218C170.786 392.218 167.859 396.391 167.859 403.279C167.859 410.168 170.961 414.29 176.27 414.29Z" fill="#373435"/>
<path d="M192.821 414.079C194.641 414.079 196.105 413.242 196.964 411.691H196.993L197.088 412.018C197.328 413.212 198.158 414.079 199.564 414.079C200.489 414.079 201.53 413.722 202.214 412.827L201.26 411.246C200.751 411.814 200.394 411.989 200.008 411.989C199.564 411.989 199.294 411.661 199.294 411.006V403.52C199.294 400.389 197.416 398.306 194.226 398.306C191.029 398.306 188.823 400.418 188.765 403.222L190.767 404.059C190.796 401.998 192.107 400.389 194.161 400.389C195.865 400.389 197.117 401.467 197.117 403.251C197.117 404.117 196.607 404.627 195.923 404.685L193.898 404.955C190.105 405.428 188.379 407.365 188.379 409.877C188.379 412.47 190.257 414.079 192.821 414.079ZM193.389 412.018C191.809 412.018 190.643 411.159 190.643 409.724C190.643 408.29 191.838 407.219 194.284 406.863L196.993 406.535V407.518C196.993 410.169 195.508 412.018 193.389 412.018Z" fill="#373435"/>
<path d="M212.056 398.306C210.534 398.306 209.311 399.319 208.772 401.074H208.743L208.51 398.721H206.689V413.78H208.954V406.054C208.954 402.479 209.937 400.302 211.517 400.302C212.77 400.302 213.52 401.496 213.52 403.819L215.515 403.193C215.515 400.032 214.204 398.306 212.056 398.306Z" fill="#373435"/>
<path d="M226.608 414.196C229.325 414.196 231.473 412.71 232.157 409.936L230.22 409.011C229.71 411.064 228.429 412.142 226.55 412.142C224.016 412.142 222.407 410.234 222.254 407.008H231.647C231.677 406.921 231.677 406.593 231.677 406.113C231.677 401.197 229.528 398.306 225.953 398.306C222.196 398.306 219.989 401.197 219.989 406.083C219.989 411.188 222.436 414.196 226.608 414.196ZM222.254 405.042C222.494 402.122 223.623 400.389 225.953 400.389C228.043 400.389 229.142 402.122 229.295 405.042H222.254Z" fill="#373435"/>
<path d="M246.649 413.781H248.914V400.6H253.865V398.722H248.914V395.765C248.914 394.309 249.598 393.442 250.734 393.442C251.87 393.442 252.613 394.454 252.613 396.158L254.608 395.321C254.608 392.932 253.057 391.447 250.618 391.447C248.142 391.447 246.649 392.932 246.649 395.379V398.722H243.904V400.6H246.649V413.781Z" fill="#373435"/>
<path d="M264.721 414.196C268.508 414.196 270.955 411.064 270.955 406.207C270.955 401.401 268.508 398.306 264.721 398.306C260.935 398.306 258.488 401.401 258.488 406.207C258.488 411.064 260.935 414.196 264.721 414.196ZM264.721 412.142C262.304 412.142 260.753 409.812 260.753 406.207C260.753 402.654 262.304 400.389 264.721 400.389C267.102 400.389 268.654 402.654 268.654 406.207C268.654 409.812 267.102 412.142 264.721 412.142Z" fill="#373435"/>
<path d="M281.688 398.306C280.166 398.306 278.943 399.319 278.404 401.074H278.375L278.142 398.721H276.321V413.78H278.586V406.054C278.586 402.479 279.569 400.302 281.149 400.302C282.402 400.302 283.152 401.496 283.152 403.819L285.147 403.193C285.147 400.032 283.836 398.306 281.688 398.306Z" fill="#373435"/>
<path d="M302.145 420.458C305.903 420.458 308.167 417.982 308.167 413.809L308.138 398.721H305.874V409.455C305.874 411.516 304.738 412.739 302.83 412.739C301.22 412.739 300.267 411.632 300.267 409.841V398.721H298.002V409.841C298.002 412.972 299.611 414.792 302.327 414.792C303.849 414.792 305.189 413.962 305.874 412.557H305.903V413.809C305.903 416.7 304.439 418.404 302.174 418.404C300.296 418.404 298.832 417.239 298.089 415.273L296.21 416.7C297.252 419.06 299.458 420.458 302.145 420.458Z" fill="#373435"/>
<path d="M319.771 414.196C323.558 414.196 326.005 411.064 326.005 406.207C326.005 401.401 323.558 398.306 319.771 398.306C315.985 398.306 313.538 401.401 313.538 406.207C313.538 411.064 315.985 414.196 319.771 414.196ZM319.771 412.142C317.354 412.142 315.803 409.812 315.803 406.207C315.803 402.654 317.354 400.389 319.771 400.389C322.152 400.389 323.704 402.654 323.704 406.207C323.704 409.812 322.152 412.142 319.771 412.142Z" fill="#373435"/>
<path d="M335.071 414.137C336.826 414.137 338.348 413.336 339.062 411.872H339.091L339.302 413.78H341.363V398.721H339.091V408.501C339.091 410.831 337.875 412.171 335.785 412.171C334.321 412.171 333.491 411.304 333.491 409.753V398.721H331.219V409.877C331.219 412.586 332.654 414.137 335.071 414.137Z" fill="#373435"/>
<path d="M352.693 398.306C351.171 398.306 349.947 399.319 349.408 401.074H349.379L349.146 398.721H347.326V413.78H349.59V406.054C349.59 402.479 350.574 400.302 352.154 400.302C353.406 400.302 354.156 401.496 354.156 403.819L356.152 403.193C356.152 400.032 354.841 398.306 352.693 398.306Z" fill="#373435"/>
<path d="M369.305 413.781H371.57V391.862H369.305V413.781Z" fill="#373435"/>
<path d="M383.171 414.196C386.958 414.196 389.405 411.064 389.405 406.207C389.405 401.401 386.958 398.306 383.171 398.306C379.385 398.306 376.938 401.401 376.938 406.207C376.938 411.064 379.385 414.196 383.171 414.196ZM383.171 412.142C380.754 412.142 379.203 409.812 379.203 406.207C379.203 402.654 380.754 400.389 383.171 400.389C385.552 400.389 387.103 402.654 387.103 406.207C387.103 409.812 385.552 412.142 383.171 412.142Z" fill="#373435"/>
<path d="M397.721 413.78H400.823L404.967 398.721H402.615L399.301 411.785H399.243L395.93 398.721H393.607L397.721 413.78Z" fill="#373435"/>
<path d="M415.764 414.196C418.48 414.196 420.628 412.71 421.313 409.936L419.376 409.011C418.866 411.064 417.584 412.142 415.706 412.142C413.172 412.142 411.562 410.234 411.409 407.008H420.803C420.832 406.921 420.832 406.593 420.832 406.113C420.832 401.197 418.684 398.306 415.108 398.306C411.351 398.306 409.145 401.197 409.145 406.083C409.145 411.188 411.591 414.196 415.764 414.196ZM411.409 405.042C411.65 402.122 412.778 400.389 415.108 400.389C417.198 400.389 418.298 402.122 418.451 405.042H411.409Z" fill="#373435"/>
<path d="M431.451 414.196C433.447 414.196 435.027 413.183 435.748 411.392H435.777L436.01 413.781H437.983V391.862H435.711V401.015H435.682C434.939 399.289 433.418 398.306 431.451 398.306C427.963 398.306 425.844 401.314 425.844 406.266C425.844 411.188 427.963 414.196 431.451 414.196ZM431.954 411.989C429.573 411.989 428.109 409.812 428.109 406.266C428.109 402.69 429.573 400.513 431.954 400.513C434.342 400.513 435.777 402.69 435.777 406.266C435.777 409.812 434.342 411.989 431.954 411.989Z" fill="#373435"/>
<path d="M457.665 414.196C461.452 414.196 463.898 411.064 463.898 406.207C463.898 401.401 461.452 398.306 457.665 398.306C453.878 398.306 451.432 401.401 451.432 406.207C451.432 411.064 453.878 414.196 457.665 414.196ZM457.665 412.142C455.247 412.142 453.696 409.812 453.696 406.207C453.696 402.654 455.247 400.389 457.665 400.389C460.046 400.389 461.597 402.654 461.597 406.207C461.597 409.812 460.046 412.142 457.665 412.142Z" fill="#373435"/>
<path d="M475.556 398.364C473.794 398.364 472.272 399.165 471.559 400.628H471.529L471.318 398.72H469.265V413.78H471.529V404C471.529 401.67 472.753 400.33 474.843 400.33C476.299 400.33 477.136 401.196 477.136 402.747V413.78H479.401V402.624C479.401 399.915 477.974 398.364 475.556 398.364Z" fill="#373435"/>
<path d="M491.242 414.196C493.958 414.196 496.106 412.71 496.79 409.936L494.853 409.011C494.344 411.064 493.062 412.142 491.183 412.142C488.649 412.142 487.04 410.234 486.887 407.008H496.281C496.31 406.921 496.31 406.593 496.31 406.113C496.31 401.197 494.162 398.306 490.586 398.306C486.829 398.306 484.622 401.197 484.622 406.083C484.622 411.188 487.069 414.196 491.242 414.196ZM486.887 405.042C487.127 402.122 488.256 400.389 490.586 400.389C492.676 400.389 493.776 402.122 493.929 405.042H486.887Z" fill="#373435"/>
<path d="M506.718 414.196C509.82 414.196 512.055 412.317 512.055 409.754C512.026 407.904 510.927 406.651 508.422 405.639L506.506 404.926C504.781 404.205 504.067 403.462 504.067 402.392C504.096 401.197 504.992 400.389 506.332 400.389C507.759 400.389 508.866 401.314 508.895 403.462L511.131 402.923C511.101 400.149 509.048 398.306 506.361 398.306C503.798 398.306 501.861 400.061 501.861 402.566C501.861 404.569 502.902 405.821 505.378 406.739L507.373 407.489C509.077 408.144 509.82 408.887 509.849 409.936C509.849 411.334 508.538 412.142 506.841 412.142C504.752 412.142 503.23 410.831 503.23 408.261L501.023 408.8C501.052 411.989 503.412 414.196 506.718 414.196Z" fill="#373435"/>
</g>
<defs>
<clipPath id="clip0_1_234">
<rect width="512" height="512" fill="white"/>
</clipPath>
</defs>
</svg>
